<svg version="1.0" xmlns="http://www.w3.org/2000/svg"
 width="59.000000pt" height="56.000000pt" viewBox="0 0 59.000000 56.000000"
 preserveAspectRatio="xMidYMid meet">
<g transform="translate(0.000000,56.000000) scale(0.100000,-0.100000)"
fill="#4c4c4d" stroke="none">
<path d="M243 550 c-95 -20 -184 -95 -218 -183 -26 -70 -18 -189 19 -251 36
-61 68 -83 101 -68 32 15 35 70 5 97 -33 30 -53 98 -48 164 5 72 39 126 99
160 34 20 52 23 112 19 61 -3 79 -8 117 -35 82 -56 126 -175 101 -269 -15 -55
-63 -119 -108 -144 -25 -14 -30 -18 -13 -14 58 15 139 99 158 163 62 207 -116
405 -325 361z"/>
</g>
</svg>
